<svg xmlns="http://www.w3.org/2000/svg" viewBox="0 0 500 500">
  <defs>
    <linearGradient id="grad1" x1="0%" y1="0%" x2="100%" y2="100%">
      <stop offset="0%" style="stop-color:#065f46;stop-opacity:1" />
      <stop offset="100%" style="stop-color:#047857;stop-opacity:1" />
    </linearGradient>
  </defs>
  <!-- Background Shield -->
  <path d="M250 480C150 430 50 350 50 150V50H450V150C450 350 350 430 250 480Z" fill="url(#grad1)" stroke="#064e3b" stroke-width="10"/>
  
  <!-- White Inner Shield -->
  <path d="M250 450C170 410 90 340 90 170V90H410V170C410 340 330 410 250 450Z" fill="#ffffff" opacity="0.1"/>

  <!-- Gear Icon -->
  <g transform="translate(150, 150) scale(4)">
    <path d="M42.1 26.6C42.7 26 43 25.1 42.7 24.3L40.2 17.6C39.9 16.8 39.1 16.4 38.3 16.5C36.4 16.8 34.5 16.9 32.6 16.9C31.5 16.9 30.4 16.8 29.3 16.7C28.5 16.6 27.8 17.1 27.5 17.8L25.3 24.5C25 25.3 25.3 26.2 26 26.7C28 28 30.2 29 32.6 29C35 29 37.2 28 39.2 26.7C39.9 26.2 40.2 25.3 39.9 24.5L37.7 17.8C37.4 17.1 36.7 16.6 35.9 16.7C34.8 16.8 33.7 16.9 32.6 16.9C30.7 16.9 28.8 16.8 26.9 16.5C26.1 16.4 25.3 16.8 25 17.6L22.5 24.3C22.2 25.1 22.5 26 23.1 26.6C20.6 28.5 18.5 30.9 16.9 33.7C16.4 34.4 16.5 35.4 17.2 36L22.6 40.3C23.3 40.8 24.3 40.7 24.9 40.1C26.7 38.2 29 36.8 31.6 36.1C32.4 35.9 33.2 36.3 33.6 37L36.4 43.6C36.7 44.4 37.6 44.8 38.4 44.6C40.3 44.1 42.1 43.4 43.8 42.5C44.5 42.1 44.8 41.2 44.5 40.4L41.7 33.8C41.4 33.1 40.6 32.7 39.8 32.9C37.2 33.6 34.5 33.6 31.9 32.9C31.1 32.7 30.3 33.1 30 33.8L27.2 40.4C26.9 41.2 27.2 42.1 27.9 42.5C29.6 43.4 31.4 44.1 33.3 44.6C34.1 44.8 35 44.4 35.3 43.6L38.1 37C38.5 36.3 39.3 35.9 40.1 36.1C42.7 36.8 45 38.2 46.8 40.1C47.4 40.7 48.4 40.8 49.1 40.3L54.5 36C55.2 35.4 55.3 34.4 54.8 33.7C53.2 30.9 51.1 28.5 48.6 26.6L42.1 26.6Z" fill="white" />
  </g>

  <!-- Hard Hat -->
  <path d="M150 220C150 160 200 120 250 120C300 120 350 160 350 220V250H150V220Z" fill="#fbbf24"/>
  <rect x="130" y="250" width="240" height="30" rx="5" fill="#f59e0b"/>
  
  <!-- Text -->
  <text x="50%" y="350" font-family="sans-serif" font-size="45" font-weight="bold" fill="white" text-anchor="middle">نقابة المهندسين</text>
  <text x="50%" y="400" font-family="sans-serif" font-size="30" fill="#a7f3d0" text-anchor="middle">الفرعية بأسيوط</text>
</svg>